<?xml version="1.0" encoding="utf-8"?>
<!-- Generator: Adobe Illustrator 24.0.0, SVG Export Plug-In . SVG Version: 6.00 Build 0)  -->
<svg version="1.1" id="Scrolldown__________Scrolldown"
	 xmlns="http://www.w3.org/2000/svg" xmlns:xlink="http://www.w3.org/1999/xlink" x="0px" y="0px" viewBox="0 0 153 154"
	 style="enable-background:new 0 0 153 154;" xml:space="preserve">
<style type="text/css">
	.st0{fill:#F5E1D9;}
</style>
<g>
	<path class="st0" d="M83.53,3.75c-0.06-0.62-0.52-1.56-1.85-1.64c-1.01-0.06-1.75,0.56-1.79,1.32c-0.04,0.63,0.32,1.13,1.08,1.34
		l1.41,0.38c1.73,0.46,2.59,1.62,2.51,3.02c-0.1,1.54-1.43,2.93-3.7,2.79c-2.52-0.16-3.57-1.85-3.64-3.29l1.59-0.35
		c0.03,1.04,0.72,2.04,2.14,2.13c1.19,0.07,1.84-0.49,1.89-1.26c0.04-0.64-0.4-1.19-1.24-1.42l-1.38-0.38
		c-1.49-0.4-2.43-1.46-2.34-2.94c0.1-1.66,1.71-2.94,3.56-2.82c2.33,0.15,3.15,1.63,3.31,2.75L83.53,3.75z"/>
	<path class="st0" d="M90.76,6.85c0.84-3.12,3.68-4.37,6.17-3.71c2.43,0.65,3.5,2.48,3.48,4.27l-1.67,0.1
		c0.03-1.24-0.61-2.41-2.22-2.84c-1.58-0.43-3.47,0.3-4.1,2.62c-0.6,2.24,0.62,3.85,2.25,4.29c1.61,0.43,2.8-0.35,3.42-1.34
		l1.36,0.89c-0.87,1.51-2.75,2.67-5.19,2.01C91.68,12.45,89.92,9.97,90.76,6.85z"/>
	<path class="st0" d="M107.99,13.97l-1.1-0.55l-1.76,3.5l-1.51-0.76l4.45-8.87l3.4,1.71c1.71,0.86,2.18,2.58,1.43,4.08
		c-0.63,1.26-1.88,1.84-3.27,1.52l0.17,4.66l-1.7-0.85L107.99,13.97z M109.17,12.9c0.93,0.46,1.8,0.23,2.2-0.59
		c0.41-0.83,0.08-1.67-0.84-2.13l-1.61-0.81l-1.36,2.72L109.17,12.9z"/>
	<path class="st0" d="M124.21,16.97c2.04,1.62,2.76,4.65,0.74,7.19c-2.03,2.55-5.14,2.53-7.18,0.91s-2.75-4.64-0.72-7.19
		C119.07,15.33,122.17,15.35,124.21,16.97z M118.77,23.81c1.31,1.05,3.35,1.14,4.84-0.73c1.49-1.87,0.94-3.83-0.38-4.88
		c-1.3-1.04-3.34-1.13-4.83,0.74C116.91,20.82,117.46,22.78,118.77,23.81z"/>
	<path class="st0" d="M125.6,32l7.58-6.4l1.08,1.28l-6.36,5.38l2.94,3.48l-1.22,1.03L125.6,32z"/>
	<path class="st0" d="M132.56,41.04l8.57-5.01l0.85,1.45l-7.19,4.2l2.3,3.93l-1.38,0.81L132.56,41.04z"/>
	<path class="st0" d="M137.91,51.12l9.37-3.28l1.16,3.32c0.89,2.55-0.1,5.15-3.11,6.2c-3,1.05-5.38-0.4-6.26-2.94L137.91,51.12z
		 M140.5,53.86c0.57,1.63,2.08,2.61,4.25,1.85c2.19-0.77,2.78-2.47,2.21-4.1l-0.59-1.68l-6.46,2.26L140.5,53.86z"/>
	<path class="st0" d="M152.48,67.48c0.31,2.59-1.3,5.25-4.53,5.63c-3.24,0.39-5.43-1.82-5.74-4.4c-0.31-2.59,1.31-5.23,4.54-5.62
		C149.98,62.7,152.17,64.89,152.48,67.48z M143.79,68.52c0.2,1.67,1.58,3.17,3.95,2.88c2.38-0.28,3.36-2.07,3.16-3.73
		c-0.2-1.65-1.58-3.15-3.95-2.87C144.58,65.08,143.6,66.86,143.79,68.52z"/>
	<path class="st0" d="M151.54,91.45l-0.22,1.72l-9.49-4.02l0.22-1.72l7.75-1.44l-7.14-3.34l0.22-1.71l10.2-1.54l-0.22,1.75
		l-7.44,1.06l6.9,3.22l-0.22,1.74l-7.55,1.42L151.54,91.45z"/>
	<path class="st0" d="M137.5,102.86l8.79-1.83l-7.01-2.74l0.61-1.57l9.25,3.61l-0.78,2l-8.2,1.64l6.56,2.56l-0.61,1.57l-9.25-3.61
		L137.5,102.86z"/>
	<path class="st0" d="M75.41,149.75c0.11,0.61,0.64,1.51,1.97,1.49c1.01-0.02,1.7-0.7,1.68-1.46c-0.01-0.63-0.41-1.1-1.18-1.25
		l-1.43-0.27c-1.75-0.32-2.71-1.41-2.73-2.81c-0.03-1.54,1.2-3.03,3.46-3.07c2.52-0.04,3.71,1.56,3.88,2.99l-1.56,0.47
		c-0.11-1.03-0.87-1.97-2.3-1.95c-1.19,0.02-1.8,0.63-1.78,1.4c0.01,0.64,0.49,1.15,1.35,1.32l1.4,0.27
		c1.52,0.28,2.54,1.26,2.56,2.74c0.03,1.67-1.47,3.06-3.32,3.09c-2.34,0.04-3.27-1.38-3.51-2.48L75.41,149.75z"/>
	<path class="st0" d="M67.91,147.15c-0.62,3.18-3.37,4.63-5.9,4.13c-2.47-0.48-3.66-2.22-3.77-4.01l1.66-0.22
		c0.06,1.24,0.78,2.36,2.42,2.68c1.61,0.31,3.44-0.54,3.9-2.91c0.44-2.28-0.89-3.8-2.55-4.12c-1.64-0.32-2.77,0.55-3.32,1.58
		l-1.42-0.79c0.76-1.56,2.55-2.86,5.04-2.37C66.6,141.63,68.53,143.97,67.91,147.15z"/>
	<path class="st0" d="M50.22,141.25l1.14,0.47l1.51-3.62l1.56,0.65l-3.82,9.16l-3.52-1.46c-1.77-0.74-2.36-2.42-1.71-3.97
		c0.54-1.3,1.75-1.97,3.16-1.75l-0.49-4.64l1.76,0.73L50.22,141.25z M49.12,142.39c-0.96-0.4-1.81-0.1-2.16,0.74
		c-0.36,0.85,0.03,1.67,0.99,2.07l1.67,0.69l1.17-2.8L49.12,142.39z"/>
	<path class="st0" d="M33.83,139.38c-2.15-1.48-3.08-4.44-1.24-7.12c1.85-2.69,4.95-2.88,7.1-1.4c2.15,1.48,3.07,4.44,1.22,7.12
		C39.07,140.66,35.98,140.86,33.83,139.38z M38.79,132.17c-1.38-0.95-3.42-0.91-4.78,1.06c-1.36,1.97-0.67,3.89,0.71,4.84
		c1.37,0.94,3.41,0.9,4.77-1.07S40.16,133.12,38.79,132.17z"/>
	<path class="st0" d="M31.42,124.5l-7.12,6.91l-1.17-1.21l5.97-5.8l-3.17-3.26l1.15-1.11L31.42,124.5z"/>
	<path class="st0" d="M23.85,115.95l-8.2,5.59l-0.95-1.39l6.88-4.69l-2.56-3.76l1.32-0.9L23.85,115.95z"/>
	<path class="st0" d="M17.8,106.25l-9.12,3.93l-1.39-3.23c-1.07-2.48-0.26-5.15,2.67-6.41c2.92-1.26,5.39,0.03,6.46,2.5L17.8,106.25
		z M15.02,103.7c-0.68-1.58-2.26-2.46-4.37-1.55c-2.14,0.92-2.6,2.66-1.92,4.24l0.7,1.63l6.29-2.71L15.02,103.7z"/>
	<path class="st0" d="M2.12,90.95c-0.49-2.56,0.94-5.32,4.13-5.93c3.2-0.61,5.55,1.44,6.03,3.99c0.49,2.56-0.94,5.31-4.14,5.92
		C4.95,95.54,2.61,93.51,2.12,90.95z M10.72,89.31c-0.31-1.65-1.79-3.05-4.14-2.6c-2.35,0.45-3.21,2.29-2.9,3.94
		c0.31,1.64,1.79,3.04,4.14,2.59C10.17,92.79,11.03,90.95,10.72,89.31z"/>
	<path class="st0" d="M1.41,66.97l0.1-1.73l9.75,3.35l-0.1,1.73l-7.63,1.97l7.35,2.84l-0.1,1.72L0.71,79.08l0.1-1.76l7.35-1.57
		l-7.11-2.74l0.1-1.75l7.43-1.94L1.41,66.97z"/>
	<path class="st0" d="M14.61,54.62l-8.64,2.44l7.18,2.24l-0.5,1.6l-9.48-2.95l0.64-2.04l8.06-2.21l-6.72-2.1l0.5-1.6l9.48,2.95
		L14.61,54.62z"/>
</g>
</svg>
