<svg version="1.1" id="Layer_1" xmlns="http://www.w3.org/2000/svg" x="0" y="0" viewBox="0 0 38 81" xml:space="preserve"><style>.st0{enable-background:new}.st1{fill:#ff3c02}</style><g id="Shape_13_1_" class="st0"><path class="st1" d="M25 19.7V0h-7v9.3C16.4 8.5 14.5 8 12.5 8 5.6 8 0 13.6 0 20.5S5.6 33 12.5 33 25 27.4 25 20.5v-.8zM12.5 26c-3 0-5.5-2.5-5.5-5.5S9.5 15 12.5 15s5.5 2.5 5.5 5.5-2.5 5.5-5.5 5.5z" id="Shape_13"/></g><g id="Shape_13_copy_1_" class="st0"><path class="st1" d="M25 20.4V33h7V20.5c0-3.1 2.5-5.6 5.6-5.6h.5V8h-.5C30.7 8 25.1 13.5 25 20.4z" id="Shape_13_copy"/></g><g id="dfry_x0D_design_x0D_studio"><g class="st0"><path class="st1" d="M.7 53.1v-9.2H4c2.5 0 4.5 1.7 4.5 4.6 0 3-2 4.6-4.5 4.6H.7zm3.2-1.4c1.6 0 2.9-1 2.9-3.2s-1.3-3.2-2.9-3.2H2.2v6.4h1.7zm7.1 1.4v-9.2h5.7v1.5h-4.2V48h3.7v1.4h-3.7v3.7H11zm11-3.6h-1.1v3.6h-1.6v-9.2h3.5c1.8 0 2.9 1.2 2.9 2.8 0 1.3-.8 2.3-2.1 2.6l2.1 3.8h-1.8L22 49.5zm.5-1.4c1 0 1.6-.6 1.6-1.4 0-.9-.6-1.4-1.6-1.4h-1.7v2.8h1.7zm4.7-4.2H29l2.2 3.9 2.2-3.9h1.8L32 49.2v3.9h-1.6v-3.9l-3.2-5.3z"/></g><g class="st0"><path class="st1" d="M6.4 66c0 .6.1 1.1.1 1.2H5c0-.1-.1-.6-.1-.8-.3.5-1 1-1.9 1-1.8 0-3-1.4-3-3.3 0-1.8 1.2-3.3 3-3.3 1.1 0 1.7.5 1.9.9v-3.8h1.5V66zm-3.2 0c1 0 1.7-.8 1.7-2s-.7-2-1.7-2-1.7.8-1.7 2 .7 2 1.7 2zm10.8-.7c-.3 1.1-1.3 2-2.9 2-1.7 0-3.2-1.2-3.2-3.4 0-2 1.5-3.3 3.1-3.3 2 0 3.1 1.3 3.1 3.3v.5H9.4c0 1 .8 1.7 1.7 1.7.9 0 1.4-.5 1.6-1.1l1.3.3zm-1.5-2c0-.7-.5-1.4-1.6-1.4-.9 0-1.5.7-1.5 1.4h3.1zm3.7 1.8c.1.6.5 1.1 1.3 1.1.6 0 .9-.3.9-.7 0-.3-.2-.6-.7-.7l-.9-.2c-1.1-.2-1.7-1-1.7-1.8 0-1.1 1-2 2.3-2 1.8 0 2.3 1.1 2.4 1.8l-1.3.4c-.1-.4-.3-.9-1.2-.9-.5 0-.9.3-.9.7 0 .3.2.6.6.7l1 .2c1.2.3 1.8 1 1.8 1.9 0 1-.8 2-2.4 2-1.8 0-2.5-1.2-2.6-1.9l1.4-.6zm6-7.5c.5 0 1 .4 1 1 0 .5-.4 1-1 1-.5 0-1-.4-1-1s.4-1 1-1zm-.8 9.5v-6.3h1.5v6.3h-1.5zm4.4 0c.1.8.7 1.4 1.6 1.4 1.2 0 1.8-.6 1.8-1.9v-.7c-.3.5-.9.9-1.8.9-1.7 0-2.9-1.3-2.9-3.1 0-1.7 1.2-3.1 2.9-3.1 1 0 1.6.4 1.9.9v-.8h1.5v5.7c0 1.7-.9 3.3-3.3 3.3-1.7 0-2.8-1-3-2.3l1.3-.3zm3.4-3.3c0-1.1-.7-1.8-1.6-1.8-1 0-1.7.7-1.7 1.8s.7 1.8 1.7 1.8 1.6-.7 1.6-1.8zm4.8 3.3h-1.5v-6.3H34v.8c.4-.7 1.2-1 1.9-1 1.5 0 2.3 1.1 2.3 2.5v4h-1.5v-3.7c0-.8-.4-1.4-1.3-1.4s-1.3.7-1.3 1.5v3.6z"/></g><g class="st0"><path class="st1" d="M1.3 79.1c.1.6.5 1.1 1.3 1.1.6 0 .9-.3.9-.7 0-.3-.2-.6-.7-.7l-.9-.2c-1.1-.2-1.7-1-1.7-1.8 0-1.1 1-2 2.3-2 1.8 0 2.3 1.1 2.4 1.8l-1.3.4c-.1-.4-.3-.9-1.2-.9-.5 0-.9.3-.9.7 0 .3.2.6.6.7l1 .2c1.2.3 1.8 1 1.8 1.9 0 1-.8 2-2.4 2-1.8 0-2.5-1.2-2.6-1.9l1.4-.6zm7.1-4.3h1.3v1.3H8.4V79c0 .6.2.8.8.8.2 0 .5 0 .5-.1v1.2c-.1 0-.4.1-.9.1-1.2 0-1.9-.7-1.9-1.9v-3.2H5.7v-1.3H6c.7 0 1-.4 1-1v-.9h1.4v2.1zm5.2 6.5c-1.5 0-2.4-1.1-2.4-2.5v-4h1.5v3.7c0 .8.4 1.4 1.3 1.4s1.3-.6 1.3-1.4v-3.7h1.5V80c0 .5 0 .9.1 1.2h-1.4c0-.1-.1-.4-.1-.7-.3.5-1.1.8-1.8.8zm11-1.3c0 .6.1 1.1.1 1.2h-1.4c0-.1-.1-.6-.1-.8-.3.5-1 1-1.9 1-1.8 0-3-1.4-3-3.3 0-1.8 1.2-3.3 3-3.3 1.1 0 1.7.5 1.9.9v-3.8h1.5V80zm-3.2 0c1 0 1.7-.8 1.7-2s-.7-2-1.7-2-1.7.8-1.7 2 .7 2 1.7 2zm5.9-8.4c.5 0 1 .4 1 1 0 .5-.4 1-1 1-.5 0-1-.4-1-1s.5-1 1-1zm-.8 9.5v-6.3H28v6.3h-1.5zm9.6-3.1c0 2-1.4 3.4-3.3 3.4S29.5 80 29.5 78c0-1.9 1.4-3.4 3.3-3.4s3.3 1.4 3.3 3.4zm-1.6 0c0-1.3-.8-2-1.8-2-.9 0-1.8.7-1.8 2s.8 2 1.8 2 1.8-.7 1.8-2z"/></g></g></svg>