<svg xmlns="http://www.w3.org/2000/svg" viewBox="0 0 153 154"><path d="M83.53 3.75c-.06-.62-.52-1.56-1.85-1.64-1.01-.06-1.75.56-1.79 1.32-.04.63.32 1.13 1.08 1.34l1.41.38c1.73.46 2.59 1.62 2.51 3.02-.1 1.54-1.43 2.93-3.7 2.79-2.52-.16-3.57-1.85-3.64-3.29l1.59-.35c.03 1.04.72 2.04 2.14 2.13 1.19.07 1.84-.49 1.89-1.26.04-.64-.4-1.19-1.24-1.42l-1.38-.38c-1.49-.4-2.43-1.46-2.34-2.94.1-1.66 1.71-2.94 3.56-2.82 2.33.15 3.15 1.63 3.31 2.75l-1.55.37zm7.23 3.1c.84-3.12 3.68-4.37 6.17-3.71 2.43.65 3.5 2.48 3.48 4.27l-1.67.1c.03-1.24-.61-2.41-2.22-2.84-1.58-.43-3.47.3-4.1 2.62-.6 2.24.62 3.85 2.25 4.29 1.61.43 2.8-.35 3.42-1.34l1.36.89c-.87 1.51-2.75 2.67-5.19 2.01-2.58-.69-4.34-3.17-3.5-6.29zm17.23 7.12l-1.1-.55-1.76 3.5-1.51-.76 4.45-8.87 3.4 1.71c1.71.86 2.18 2.58 1.43 4.08-.63 1.26-1.88 1.84-3.27 1.52l.17 4.66-1.7-.85-.11-4.44zm1.18-1.07c.93.46 1.8.23 2.2-.59.41-.83.08-1.67-.84-2.13l-1.61-.81-1.36 2.72 1.61.81zm15.04 4.07c2.04 1.62 2.76 4.65.74 7.19-2.03 2.55-5.14 2.53-7.18.91s-2.75-4.64-.72-7.19c2.02-2.55 5.12-2.53 7.16-.91zm-5.44 6.84c1.31 1.05 3.35 1.14 4.84-.73 1.49-1.87.94-3.83-.38-4.88-1.3-1.04-3.34-1.13-4.83.74-1.49 1.88-.94 3.84.37 4.87zM125.6 32l7.58-6.4 1.08 1.28-6.36 5.38 2.94 3.48-1.22 1.03L125.6 32zm6.96 9.04l8.57-5.01.85 1.45-7.19 4.2 2.3 3.93-1.38.81-3.15-5.38zm5.35 10.08l9.37-3.28 1.16 3.32c.89 2.55-.1 5.15-3.11 6.2-3 1.05-5.38-.4-6.26-2.94l-1.16-3.3zm2.59 2.74c.57 1.63 2.08 2.61 4.25 1.85 2.19-.77 2.78-2.47 2.21-4.1l-.59-1.68-6.46 2.26.59 1.67zm11.98 13.62c.31 2.59-1.3 5.25-4.53 5.63-3.24.39-5.43-1.82-5.74-4.4-.31-2.59 1.31-5.23 4.54-5.62 3.23-.39 5.42 1.8 5.73 4.39zm-8.69 1.04c.2 1.67 1.58 3.17 3.95 2.88 2.38-.28 3.36-2.07 3.16-3.73-.2-1.65-1.58-3.15-3.95-2.87-2.37.28-3.35 2.06-3.16 3.72zm7.75 22.93l-.22 1.72-9.49-4.02.22-1.72 7.75-1.44-7.14-3.34.22-1.71 10.2-1.54-.22 1.75-7.44 1.06 6.9 3.22-.22 1.74-7.55 1.42 6.99 2.86zm-14.04 11.41l8.79-1.83-7.01-2.74.61-1.57 9.25 3.61-.78 2-8.2 1.64 6.56 2.56-.61 1.57-9.25-3.61.64-1.63zm-62.09 46.89c.11.61.64 1.51 1.97 1.49 1.01-.02 1.7-.7 1.68-1.46-.01-.63-.41-1.1-1.18-1.25l-1.43-.27c-1.75-.32-2.71-1.41-2.73-2.81-.03-1.54 1.2-3.03 3.46-3.07 2.52-.04 3.71 1.56 3.88 2.99l-1.56.47c-.11-1.03-.87-1.97-2.3-1.95-1.19.02-1.8.63-1.78 1.4.01.64.49 1.15 1.35 1.32l1.4.27c1.52.28 2.54 1.26 2.56 2.74.03 1.67-1.47 3.06-3.32 3.09-2.34.04-3.27-1.38-3.51-2.48l1.51-.48zm-7.5-2.6c-.62 3.18-3.37 4.63-5.9 4.13-2.47-.48-3.66-2.22-3.77-4.01l1.66-.22c.06 1.24.78 2.36 2.42 2.68 1.61.31 3.44-.54 3.9-2.91.44-2.28-.89-3.8-2.55-4.12-1.64-.32-2.77.55-3.32 1.58l-1.42-.79c.76-1.56 2.55-2.86 5.04-2.37 2.63.51 4.56 2.85 3.94 6.03zm-17.69-5.9l1.14.47 1.51-3.62 1.56.65-3.82 9.16-3.52-1.46c-1.77-.74-2.36-2.42-1.71-3.97.54-1.3 1.75-1.97 3.16-1.75l-.49-4.64 1.76.73.41 4.43zm-1.1 1.14c-.96-.4-1.81-.1-2.16.74-.36.85.03 1.67.99 2.07l1.67.69 1.17-2.8-1.67-.7zm-15.29-3.01c-2.15-1.48-3.08-4.44-1.24-7.12 1.85-2.69 4.95-2.88 7.1-1.4 2.15 1.48 3.07 4.44 1.22 7.12-1.84 2.68-4.93 2.88-7.08 1.4zm4.96-7.21c-1.38-.95-3.42-.91-4.78 1.06-1.36 1.97-.67 3.89.71 4.84 1.37.94 3.41.9 4.77-1.07s.67-3.88-.7-4.83zm-7.37-7.67l-7.12 6.91-1.17-1.21 5.97-5.8-3.17-3.26 1.15-1.11 4.34 4.47zm-7.57-8.55l-8.2 5.59-.95-1.39 6.88-4.69-2.56-3.76 1.32-.9 3.51 5.15zm-6.05-9.7l-9.12 3.93-1.39-3.23c-1.07-2.48-.26-5.15 2.67-6.41 2.92-1.26 5.39.03 6.46 2.5l1.38 3.21zm-2.78-2.55c-.68-1.58-2.26-2.46-4.37-1.55-2.14.92-2.6 2.66-1.92 4.24l.7 1.63 6.29-2.71-.7-1.61zM2.12 90.95c-.49-2.56.94-5.32 4.13-5.93 3.2-.61 5.55 1.44 6.03 3.99.49 2.56-.94 5.31-4.14 5.92-3.19.61-5.53-1.42-6.02-3.98zm8.6-1.64c-.31-1.65-1.79-3.05-4.14-2.6-2.35.45-3.21 2.29-2.9 3.94.31 1.64 1.79 3.04 4.14 2.59 2.35-.45 3.21-2.29 2.9-3.93zM1.41 66.97l.1-1.73 9.75 3.35-.1 1.73-7.63 1.97 7.35 2.84-.1 1.72L.71 79.08l.1-1.76 7.35-1.57-7.11-2.74.1-1.75 7.43-1.94-7.17-2.35zm13.2-12.35l-8.64 2.44 7.18 2.24-.5 1.6-9.48-2.95.64-2.04 8.06-2.21-6.72-2.1.5-1.6 9.48 2.95-.52 1.67z" fill="#f5e1d9"/></svg>