<?xml version="1.0" encoding="utf-8"?>
<!-- Generator: Adobe Illustrator 24.0.0, SVG Export Plug-In . SVG Version: 6.00 Build 0)  -->
<svg version="1.1" id="Layer_1" xmlns="http://www.w3.org/2000/svg" xmlns:xlink="http://www.w3.org/1999/xlink" x="0px" y="0px"
	 viewBox="0 0 38 81" style="enable-background:new 0 0 38 81;" xml:space="preserve">
<style type="text/css">
	.st0{enable-background:new    ;}
	.st1{fill:#FF3C02;}
</style>
<g id="Shape_13_1_" class="st0">
	<g id="Shape_13">
		<g>
			<path class="st1" d="M25,19.7V0h-7v9.3C16.4,8.5,14.5,8,12.5,8C5.6,8,0,13.6,0,20.5S5.6,33,12.5,33S25,27.4,25,20.5
				C25,20.2,25,20,25,19.7z M12.5,26c-3,0-5.5-2.5-5.5-5.5S9.5,15,12.5,15s5.5,2.5,5.5,5.5S15.5,26,12.5,26z"/>
		</g>
	</g>
</g>
<g id="Shape_13_copy_1_" class="st0">
	<g id="Shape_13_copy">
		<g>
			<path class="st1" d="M25,20.4L25,20.4L25,20.4c0,0.1,0,0.1,0,0.2s0,0.1,0,0.1V33h7V20.8h0c0-0.1,0-0.2,0-0.3
				c0-3.1,2.5-5.6,5.6-5.6c0.2,0,0.3,0,0.5,0V8c-0.2,0-0.3,0-0.5,0C30.7,8,25.1,13.5,25,20.4z"/>
		</g>
	</g>
</g>
<g id="dfry_x0D_design_x0D_studio">
	<g class="st0">
		<path class="st1" d="M0.7,53.1v-9.2h3.3c2.5,0,4.5,1.7,4.5,4.6c0,3-2,4.6-4.5,4.6H0.7z M3.9,51.7c1.6,0,2.9-1,2.9-3.2
			c0-2.2-1.3-3.2-2.9-3.2H2.2v6.4H3.9z"/>
		<path class="st1" d="M11,53.1v-9.2h5.7v1.5h-4.2V48h3.7v1.4h-3.7v3.7H11z"/>
		<path class="st1" d="M22,49.5h-1.1v3.6h-1.6v-9.2h3.5c1.8,0,2.9,1.2,2.9,2.8c0,1.3-0.8,2.3-2.1,2.6l2.1,3.8h-1.8L22,49.5z
			 M22.5,48.1c1,0,1.6-0.6,1.6-1.4c0-0.9-0.6-1.4-1.6-1.4h-1.7v2.8H22.5z"/>
		<path class="st1" d="M27.2,43.9h1.8l2.2,3.9l2.2-3.9h1.8L32,49.2v3.9h-1.6v-3.9L27.2,43.9z"/>
	</g>
	<g class="st0">
		<path class="st1" d="M6.4,66c0,0.6,0.1,1.1,0.1,1.2H5c0-0.1-0.1-0.6-0.1-0.8c-0.3,0.5-1,1-1.9,1c-1.8,0-3-1.4-3-3.3
			c0-1.8,1.2-3.3,3-3.3c1.1,0,1.7,0.5,1.9,0.9v-3.8h1.5V66z M3.2,66c1,0,1.7-0.8,1.7-2s-0.7-2-1.7-2c-1,0-1.7,0.8-1.7,2
			S2.2,66,3.2,66z"/>
		<path class="st1" d="M14,65.3c-0.3,1.1-1.3,2-2.9,2c-1.7,0-3.2-1.2-3.2-3.4c0-2,1.5-3.3,3.1-3.3c2,0,3.1,1.3,3.1,3.3
			c0,0.2,0,0.5,0,0.5H9.4c0,1,0.8,1.7,1.7,1.7c0.9,0,1.4-0.5,1.6-1.1L14,65.3z M12.5,63.3c0-0.7-0.5-1.4-1.6-1.4
			c-0.9,0-1.5,0.7-1.5,1.4H12.5z"/>
		<path class="st1" d="M16.2,65.1c0.1,0.6,0.5,1.1,1.3,1.1c0.6,0,0.9-0.3,0.9-0.7c0-0.3-0.2-0.6-0.7-0.7l-0.9-0.2
			c-1.1-0.2-1.7-1-1.7-1.8c0-1.1,1-2,2.3-2c1.8,0,2.3,1.1,2.4,1.8l-1.3,0.4c-0.1-0.4-0.3-0.9-1.2-0.9c-0.5,0-0.9,0.3-0.9,0.7
			c0,0.3,0.2,0.6,0.6,0.7l1,0.2c1.2,0.3,1.8,1,1.8,1.9c0,1-0.8,2-2.4,2c-1.8,0-2.5-1.2-2.6-1.9L16.2,65.1z"/>
		<path class="st1" d="M22.2,57.6c0.5,0,1,0.4,1,1c0,0.5-0.4,1-1,1c-0.5,0-1-0.4-1-1C21.2,58,21.6,57.6,22.2,57.6z M21.4,67.1v-6.3
			h1.5v6.3H21.4z"/>
		<path class="st1" d="M25.8,67.1c0.1,0.8,0.7,1.4,1.6,1.4c1.2,0,1.8-0.6,1.8-1.9v-0.7c-0.3,0.5-0.9,0.9-1.8,0.9
			c-1.7,0-2.9-1.3-2.9-3.1c0-1.7,1.2-3.1,2.9-3.1c1,0,1.6,0.4,1.9,0.9v-0.8h1.5v5.7c0,1.7-0.9,3.3-3.3,3.3c-1.7,0-2.8-1-3-2.3
			L25.8,67.1z M29.2,63.8c0-1.1-0.7-1.8-1.6-1.8c-1,0-1.7,0.7-1.7,1.8c0,1.1,0.7,1.8,1.7,1.8C28.6,65.6,29.2,64.9,29.2,63.8z"/>
		<path class="st1" d="M34,67.1h-1.5v-6.3H34v0.8c0.4-0.7,1.2-1,1.9-1c1.5,0,2.3,1.1,2.3,2.5v4h-1.5v-3.7c0-0.8-0.4-1.4-1.3-1.4
			c-0.9,0-1.3,0.7-1.3,1.5V67.1z"/>
	</g>
	<g class="st0">
		<path class="st1" d="M1.3,79.1c0.1,0.6,0.5,1.1,1.3,1.1c0.6,0,0.9-0.3,0.9-0.7c0-0.3-0.2-0.6-0.7-0.7l-0.9-0.2
			c-1.1-0.2-1.7-1-1.7-1.8c0-1.1,1-2,2.3-2c1.8,0,2.3,1.1,2.4,1.8l-1.3,0.4c-0.1-0.4-0.3-0.9-1.2-0.9c-0.5,0-0.9,0.3-0.9,0.7
			c0,0.3,0.2,0.6,0.6,0.7l1,0.2c1.2,0.3,1.8,1,1.8,1.9c0,1-0.8,2-2.4,2c-1.8,0-2.5-1.2-2.6-1.9L1.3,79.1z"/>
		<path class="st1" d="M8.4,74.8h1.3v1.3H8.4v2.9c0,0.6,0.2,0.8,0.8,0.8c0.2,0,0.5,0,0.5-0.1v1.2c-0.1,0-0.4,0.1-0.9,0.1
			c-1.2,0-1.9-0.7-1.9-1.9v-3.2H5.7v-1.3H6c0.7,0,1-0.4,1-1v-0.9h1.4V74.8z"/>
		<path class="st1" d="M13.6,81.3c-1.5,0-2.4-1.1-2.4-2.5v-4h1.5v3.7c0,0.8,0.4,1.4,1.3,1.4c0.9,0,1.3-0.6,1.3-1.4v-3.7h1.5V80
			c0,0.5,0,0.9,0.1,1.2h-1.4c0-0.1-0.1-0.4-0.1-0.7C15.1,81,14.3,81.3,13.6,81.3z"/>
		<path class="st1" d="M24.6,80c0,0.6,0.1,1.1,0.1,1.2h-1.4c0-0.1-0.1-0.6-0.1-0.8c-0.3,0.5-1,1-1.9,1c-1.8,0-3-1.4-3-3.3
			c0-1.8,1.2-3.3,3-3.3c1.1,0,1.7,0.5,1.9,0.9v-3.8h1.5V80z M21.4,80c1,0,1.7-0.8,1.7-2s-0.7-2-1.7-2s-1.7,0.8-1.7,2
			S20.4,80,21.4,80z"/>
		<path class="st1" d="M27.3,71.6c0.5,0,1,0.4,1,1c0,0.5-0.4,1-1,1c-0.5,0-1-0.4-1-1C26.3,72,26.8,71.6,27.3,71.6z M26.5,81.1v-6.3
			H28v6.3H26.5z"/>
		<path class="st1" d="M36.1,78c0,2-1.4,3.4-3.3,3.4c-1.9,0-3.3-1.4-3.3-3.4c0-1.9,1.4-3.4,3.3-3.4C34.7,74.6,36.1,76,36.1,78z
			 M34.5,78c0-1.3-0.8-2-1.8-2c-0.9,0-1.8,0.7-1.8,2c0,1.3,0.8,2,1.8,2C33.7,80,34.5,79.3,34.5,78z"/>
	</g>
</g>
</svg>
